#N canvas 285 148 450 300 10;
#X obj 138 16 bng 15 250 50 0 empty empty empty 17 7 0 10 -262144 -1
-1;
#X obj 156 86 thunder;
#X obj 155 169 dac~;
#X connect 0 0 1 0;
#X connect 1 0 2 0;
#X connect 1 0 2 1;
