#N canvas 0 22 1439 796 10;
#X obj -99 -61 loadbang;
#X obj -99 -39 random 12;
#X obj 934 232 mtof;
#X obj 934 261 osc~;
#X obj 934 299 *~;
#N canvas 0 22 450 278 (subpatch) 0;
#X array scale 12 float 3;
#A 0 0 2 4 5 7 9 11 12 14 16 17 19;
#X coords 0 19 12 0 200 140 1 0 0;
#X restore 1125 -67 graph;
#X obj 934 138 tabread scale;
#X obj 934 212 +;
#X obj 658 -62 tgl 15 0 empty empty empty 17 7 0 10 -262144 -1 -1 0
1;
#X obj -99 -15 s root;
#X obj 949 159 r root;
#X obj 499 224 mtof;
#X obj 499 245 osc~;
#X obj 499 130 tabread scale;
#X obj 499 201 +;
#X obj 514 151 r root;
#X obj -99 -82 bng 15 250 50 0 empty empty empty 17 7 0 10 -262144
-1 -1;
#X obj 499 266 *~ 0.5;
#X obj 514 176 + 26;
#X obj 499 311 *~;
#N canvas 0 22 450 278 (subpatch) 0;
#X array melody 16 float 3;
#A 0 8 11 10 9 9 2 3 8 7 0 7 10 7 1 7 0;
#X coords 0 12 16 -1 200 140 1 0 0;
#X restore 1125 94 graph;
#N canvas 0 22 450 278 (subpatch) 0;
#X array bass 4 float 3;
#A 0 8 1 10 0;
#X coords 0 12 4 -1 200 140 1 0 0;
#X restore 1127 258 graph;
#X obj 499 101 tabread bass;
#X obj 934 109 tabread melody;
#X obj 499 74 mod 4;
#X obj 934 84 mod 16;
#X obj 499 46 f;
#X obj 531 45 + 1;
#X obj 934 57 f;
#X obj 966 56 + 1;
#X obj 499 17 metro 1600;
#X obj 934 24 metro 400;
#X obj 949 185 + 62;
#X obj 218 374 *~;
#X obj 729 -13 s run;
#X obj 514 289 r run;
#X obj 125 262 mtof;
#X obj 125 168 tabread scale;
#X obj 125 239 +;
#X obj 140 189 r root;
#X obj 218 264 mtof;
#X obj 218 170 tabread scale;
#X obj 218 241 +;
#X obj 233 191 r root;
#X obj 318 263 mtof;
#X obj 318 169 tabread scale;
#X obj 318 240 +;
#X obj 333 190 r root;
#X obj 1192 590 dac~;
#X obj 233 351 r run;
#X obj 125 291 osc~;
#X obj 218 293 osc~;
#X obj 318 292 osc~;
#X obj 140 214 + 50;
#X obj 233 216 + 50;
#X obj 333 215 + 50;
#X obj 1007 282 ead~ 20 5000;
#X obj 218 143 + 2;
#X obj 124 142 + 4;
#X obj 1001 341 freeverb~;
#X obj 933 388 *~ 0.7;
#X obj 934 339 *~ 0.5;
#X obj -99 164 bng 15 250 50 0 empty empty empty 17 7 0 10 -262144
-1 -1;
#X floatatom -99 187 5 0 0 0 - - -;
#X obj -99 212 s reset;
#X obj 439 17 r reset;
#X obj 880 23 r reset;
#X obj 218 396 throw~ outL;
#X obj 499 357 throw~ outL;
#X obj 933 417 throw~ outR;
#X obj 1192 443 catch~ outL;
#X obj 1213 514 catch~ outR;
#X obj 510 335 throw~ outR;
#X obj 218 330 *~ 0.3;
#X obj -99 114 mod 4;
#X obj -99 86 f;
#X obj -67 85 + 1;
#X obj -99 138 == 4;
#X obj -99 12 r run;
#X obj -99 50 metro 25600;
#X obj 1192 490 *~;
#X obj 1213 560 *~;
#X obj 1081 503 line~;
#X msg 1081 444 0 0;
#X obj 1081 532 s~ overallVolume;
#X obj 1207 465 r~ overallVolume;
#X obj 1228 535 r~ overallVolume;
#X msg 1099 467 1 9000;
#N canvas 489 241 450 300 writer 0;
#X obj 56 21 inlet on;
#X obj 320 109 + 1;
#X obj 56 111 random 12;
#X obj 56 51 metro 1600;
#X obj 201 46 metro 400;
#X obj 56 198 tabwrite bass;
#X obj 131 111 f;
#X obj 163 110 + 1;
#X obj 131 167 moses 4;
#X obj 56 173 *;
#X obj 71 146 < 4;
#X obj 201 110 random 12;
#X obj 288 110 f;
#X obj 201 172 *;
#X obj 288 166 moses 16;
#X obj 216 145 < 16;
#X obj 201 197 tabwrite melody;
#X obj 131 86 r reset;
#X obj 288 82 r reset;
#X connect 0 0 3 0;
#X connect 0 0 4 0;
#X connect 1 0 12 1;
#X connect 2 0 9 0;
#X connect 3 0 2 0;
#X connect 3 0 6 0;
#X connect 4 0 11 0;
#X connect 4 0 12 0;
#X connect 6 0 7 0;
#X connect 6 0 8 0;
#X connect 6 0 10 0;
#X connect 7 0 6 1;
#X connect 8 0 5 1;
#X connect 9 0 5 0;
#X connect 10 0 9 1;
#X connect 11 0 13 0;
#X connect 12 0 14 0;
#X connect 12 0 15 0;
#X connect 12 0 1 0;
#X connect 13 0 16 0;
#X connect 14 0 16 1;
#X connect 15 0 13 1;
#X connect 17 0 6 0;
#X connect 18 0 12 0;
#X restore 658 -13 pd writer;
#X connect 0 0 1 0;
#X connect 1 0 9 0;
#X connect 2 0 3 0;
#X connect 3 0 4 0;
#X connect 4 0 59 0;
#X connect 4 0 61 0;
#X connect 6 0 7 0;
#X connect 7 0 2 0;
#X connect 8 0 30 0;
#X connect 8 0 31 0;
#X connect 8 0 34 0;
#X connect 8 0 88 0;
#X connect 10 0 32 0;
#X connect 11 0 12 0;
#X connect 12 0 17 0;
#X connect 13 0 14 0;
#X connect 14 0 11 0;
#X connect 15 0 18 0;
#X connect 16 0 0 0;
#X connect 17 0 19 0;
#X connect 18 0 14 1;
#X connect 19 0 68 0;
#X connect 19 0 72 0;
#X connect 22 0 13 0;
#X connect 22 0 45 0;
#X connect 22 0 57 0;
#X connect 22 0 58 0;
#X connect 23 0 6 0;
#X connect 24 0 22 0;
#X connect 25 0 23 0;
#X connect 26 0 27 0;
#X connect 26 0 24 0;
#X connect 27 0 26 1;
#X connect 28 0 29 0;
#X connect 28 0 25 0;
#X connect 29 0 28 1;
#X connect 30 0 26 0;
#X connect 31 0 28 0;
#X connect 31 0 56 0;
#X connect 32 0 7 1;
#X connect 33 0 67 0;
#X connect 35 0 19 1;
#X connect 36 0 50 0;
#X connect 37 0 38 0;
#X connect 38 0 36 0;
#X connect 39 0 53 0;
#X connect 40 0 51 0;
#X connect 41 0 42 0;
#X connect 42 0 40 0;
#X connect 43 0 54 0;
#X connect 44 0 52 0;
#X connect 45 0 46 0;
#X connect 46 0 44 0;
#X connect 47 0 55 0;
#X connect 49 0 33 1;
#X connect 50 0 73 0;
#X connect 51 0 73 0;
#X connect 52 0 73 0;
#X connect 53 0 38 1;
#X connect 54 0 42 1;
#X connect 55 0 46 1;
#X connect 56 0 4 1;
#X connect 57 0 41 0;
#X connect 58 0 37 0;
#X connect 59 0 60 0;
#X connect 60 0 69 0;
#X connect 61 0 60 0;
#X connect 62 0 63 0;
#X connect 63 0 64 0;
#X connect 65 0 26 0;
#X connect 66 0 28 0;
#X connect 70 0 80 0;
#X connect 71 0 81 0;
#X connect 73 0 33 0;
#X connect 74 0 77 0;
#X connect 75 0 76 0;
#X connect 75 0 74 0;
#X connect 76 0 75 1;
#X connect 77 0 62 0;
#X connect 78 0 79 0;
#X connect 79 0 75 0;
#X connect 80 0 48 0;
#X connect 81 0 48 1;
#X connect 82 0 84 0;
#X connect 83 0 82 0;
#X connect 85 0 80 1;
#X connect 86 0 81 1;
#X connect 87 0 82 0;
