#N canvas 552 108 706 523 10;
#X obj 13 12 loadbang;
#X obj 13 34 random 12;
#X obj 239 206 mtof;
#X obj 239 235 osc~;
#X obj 239 273 *~;
#X obj 239 386 dac~;
#N canvas 0 22 450 278 (subpatch) 0;
#X array scale 12 float 1;
#A 0 0 2 4 5 7 9 11 12 14 16 17 19;
#X coords 0 19 11 0 200 140 1 0 0;
#X restore 439 66 graph;
#X obj 239 85 random 12;
#X obj 239 112 tabread scale;
#X obj 239 186 +;
#X obj 239 18 tgl 15 0 empty empty empty 17 7 0 10 -262144 -1 -1 0
1;
#X obj 13 58 s root;
#X obj 254 133 r root;
#X obj 89 205 mtof;
#X obj 89 234 osc~;
#X obj 89 84 random 12;
#X obj 89 111 tabread scale;
#X obj 89 182 +;
#X obj 104 132 r root;
#X obj 254 159 + 50;
#X obj 13 -9 bng 15 250 50 0 empty empty empty 17 7 0 10 -262144 -1
-1;
#X obj 89 59 metro 1600;
#X obj 239 47 metro 400;
#X obj 89 272 *~ 0.5;
#X obj 104 157 + 26;
#X obj 312 256 ead~ 3 1500;
#X obj 145 311 *~;
#X connect 0 0 1 0;
#X connect 1 0 11 0;
#X connect 2 0 3 0;
#X connect 3 0 4 0;
#X connect 4 0 5 0;
#X connect 4 0 5 1;
#X connect 7 0 8 0;
#X connect 8 0 9 0;
#X connect 9 0 2 0;
#X connect 10 0 21 0;
#X connect 10 0 22 0;
#X connect 10 0 26 1;
#X connect 12 0 19 0;
#X connect 13 0 14 0;
#X connect 14 0 23 0;
#X connect 15 0 16 0;
#X connect 16 0 17 0;
#X connect 17 0 13 0;
#X connect 18 0 24 0;
#X connect 19 0 9 1;
#X connect 20 0 0 0;
#X connect 21 0 15 0;
#X connect 22 0 7 0;
#X connect 22 0 25 0;
#X connect 23 0 26 0;
#X connect 24 0 17 1;
#X connect 25 0 4 1;
#X connect 26 0 5 0;
#X connect 26 0 5 1;
